<?xml version="1.0" encoding="utf-8"?>
<svg version="1.1"
	 xmlns="http://www.w3.org/2000/svg" xmlns:xlink="http://www.w3.org/1999/xlink" xmlns:a="http://ns.adobe.com/AdobeSVGViewerExtensions/3.0/"
	 x="0px" y="0px" viewBox="0 0 161 38" enable-background="new 0 0 160 38"
	 xml:space="preserve">
<defs>
</defs>
<path d="M10.482,15.633c-0.637,0.377-1.973,0.753-3.659,0.753C2.919,16.387,0,13.562,0,8.335C0,3.343,2.939,0,7.235,0
	c1.706,0,2.816,0.424,3.289,0.707l-0.452,1.671C9.414,2.001,8.448,1.719,7.297,1.719c-3.248,0-5.406,2.378-5.406,6.545
	c0,3.908,1.953,6.38,5.303,6.38c1.11,0,2.22-0.259,2.939-0.659L10.482,15.633z"/>
<path d="M21.456,10.336c0,4.214-2.569,6.051-4.954,6.051c-2.672,0-4.768-2.26-4.768-5.862c0-3.791,2.199-6.027,4.933-6.027
	C19.523,4.497,21.456,6.875,21.456,10.336z M13.583,10.454c0,2.496,1.233,4.379,3.001,4.379c1.727,0,3.021-1.86,3.021-4.426
	c0-1.931-0.842-4.356-2.98-4.356C14.508,6.051,13.583,8.311,13.583,10.454z"/>
<path d="M23.734,7.817c0-1.201-0.041-2.143-0.083-3.084h1.583l0.082,1.86h0.062c0.555-1.083,1.48-2.095,3.145-2.095
	c1.336,0,2.363,0.942,2.795,2.284h0.042c0.308-0.659,0.719-1.13,1.13-1.483c0.596-0.518,1.233-0.8,2.179-0.8
	c1.336,0,3.289,0.989,3.289,4.944v6.687H36.19V9.7c0-2.213-0.72-3.508-2.158-3.508c-1.048,0-1.83,0.871-2.158,1.86
	c-0.082,0.306-0.144,0.659-0.144,1.036v7.04h-1.768V9.3c0-1.813-0.699-3.108-2.076-3.108c-1.11,0-1.953,1.036-2.24,2.072
	c-0.103,0.283-0.144,0.659-0.144,1.012v6.852h-1.768V7.817z"/>
<path d="M40.872,8.453c0-1.46-0.041-2.637-0.083-3.72h1.604l0.103,1.954h0.041c0.72-1.389,1.912-2.189,3.536-2.189
	c2.425,0,4.234,2.331,4.234,5.769c0,4.097-2.199,6.121-4.542,6.121c-1.315,0-2.466-0.659-3.063-1.789H42.66v6.192h-1.788V8.453z
	 M42.66,11.49c0,0.306,0.021,0.588,0.082,0.848c0.329,1.436,1.418,2.425,2.713,2.425c1.911,0,3.021-1.789,3.021-4.403
	c0-2.26-1.048-4.214-2.96-4.214c-1.233,0-2.405,0.989-2.733,2.543c-0.062,0.259-0.124,0.565-0.124,0.824V11.49z"/>
<path d="M59.552,13.397c0,0.989,0.041,1.954,0.144,2.731h-1.624l-0.144-1.436h-0.062c-0.555,0.895-1.624,1.695-3.042,1.695
	c-2.014,0-3.042-1.625-3.042-3.272c0-2.755,2.138-4.262,5.981-4.238V8.641c0-0.918-0.226-2.637-2.261-2.613
	c-0.945,0-1.911,0.306-2.61,0.848l-0.411-1.389c0.822-0.588,2.035-0.989,3.289-0.989c3.042,0,3.782,2.378,3.782,4.638V13.397z
	 M57.805,10.313c-1.973-0.047-4.213,0.353-4.213,2.566c0,1.365,0.781,1.978,1.685,1.978c1.315,0,2.158-0.942,2.446-1.907
	c0.062-0.235,0.083-0.471,0.083-0.659V10.313z"/>
<path d="M62.469,7.817c0-1.201-0.021-2.143-0.083-3.084h1.604l0.103,1.884h0.041c0.494-1.06,1.645-2.119,3.289-2.119
	c1.377,0,3.515,0.942,3.515,4.85v6.781h-1.809V9.559c0-1.836-0.596-3.367-2.302-3.367c-1.172,0-2.097,0.965-2.425,2.119
	c-0.083,0.259-0.124,0.612-0.124,0.965v6.852h-1.809V7.817z"/>
<path d="M74.264,4.732l2.158,6.734c0.247,0.753,0.493,1.648,0.658,2.331h0.041c0.185-0.683,0.391-1.554,0.637-2.378l1.973-6.687
	h1.911l-2.713,8.123c-1.295,3.908-2.179,5.886-3.412,7.134c-0.905,0.871-1.768,1.224-2.22,1.318l-0.452-1.719
	c0.452-0.165,1.048-0.494,1.583-1.012c0.493-0.447,1.089-1.248,1.521-2.308c0.082-0.212,0.144-0.376,0.144-0.494
	s-0.041-0.283-0.144-0.542L72.291,4.732H74.264z"/>
<path fill="currentColor" d="M0.288,24.381h1.206v9.437H5.44v1.146H0.288V24.381z"/>
<path fill="currentColor" d="M12.536,31.101c0,2.811-1.713,4.035-3.302,4.035c-1.781,0-3.179-1.507-3.179-3.91c0-2.528,1.466-4.02,3.289-4.02
	C11.248,27.207,12.536,28.793,12.536,31.101z M7.288,31.179c0,1.665,0.822,2.92,2,2.92c1.151,0,2.014-1.24,2.014-2.952
	c0-1.288-0.562-2.905-1.987-2.905C7.905,28.243,7.288,29.75,7.288,31.179z"/>
<path fill="currentColor" d="M14.056,29.735c0-0.895-0.014-1.665-0.055-2.371h1.055l0.055,1.507h0.042c0.301-1.021,1.041-1.664,1.85-1.664
	c0.124,0,0.219,0.016,0.329,0.031v1.303c-0.124-0.031-0.247-0.031-0.411-0.031c-0.85,0-1.453,0.722-1.617,1.758
	c-0.027,0.188-0.041,0.424-0.041,0.644v4.051h-1.206V29.735z"/>
<path fill="currentColor" d="M19.07,31.415c0.027,1.868,1.055,2.638,2.274,2.638c0.863,0,1.397-0.173,1.836-0.393l0.219,0.989
	c-0.425,0.22-1.165,0.487-2.22,0.487c-2.042,0-3.261-1.555-3.261-3.847c0-2.292,1.179-4.082,3.111-4.082
	c2.178,0,2.74,2.167,2.74,3.564c0,0.283-0.014,0.487-0.041,0.644H19.07z M22.605,30.426c0.014-0.864-0.315-2.229-1.672-2.229
	c-1.233,0-1.754,1.271-1.85,2.229H22.605z"/>
<path fill="currentColor" d="M25.262,29.421c0-0.801-0.028-1.429-0.055-2.057h1.055l0.055,1.241h0.042c0.37-0.722,0.986-1.397,2.096-1.397
	c0.891,0,1.576,0.628,1.864,1.523h0.027c0.206-0.439,0.479-0.754,0.753-0.989c0.397-0.345,0.822-0.534,1.453-0.534
	c0.891,0,2.192,0.659,2.192,3.297v4.459h-1.179v-4.287c0-1.476-0.479-2.339-1.438-2.339c-0.699,0-1.22,0.581-1.439,1.24
	c-0.055,0.204-0.096,0.44-0.096,0.691v4.695h-1.178V30.41c0-1.209-0.466-2.073-1.384-2.073c-0.74,0-1.302,0.691-1.494,1.382
	c-0.068,0.188-0.096,0.439-0.096,0.675v4.569h-1.178V29.421z"/>
<path fill="currentColor" d="M40.824,24.381v10.583h-1.206V24.381H40.824z"/>
<path fill="currentColor" d="M43.002,29.845c0-0.974-0.028-1.758-0.055-2.481h1.069l0.069,1.303h0.027c0.479-0.926,1.274-1.46,2.356-1.46
	c1.617,0,2.823,1.554,2.823,3.847c0,2.732-1.466,4.083-3.028,4.083c-0.877,0-1.644-0.44-2.042-1.193h-0.027v4.129h-1.192V29.845z
	 M44.194,31.87c0,0.204,0.014,0.393,0.055,0.565c0.219,0.958,0.946,1.617,1.809,1.617c1.274,0,2.015-1.193,2.015-2.936
	c0-1.507-0.699-2.811-1.973-2.811c-0.822,0-1.604,0.659-1.823,1.696c-0.041,0.172-0.082,0.376-0.082,0.549V31.87z"/>
<path fill="currentColor" d="M50.632,33.566c0.37,0.251,1,0.534,1.603,0.534c0.863,0,1.274-0.486,1.274-1.13c0-0.659-0.343-1.005-1.22-1.382
	c-1.206-0.502-1.768-1.24-1.768-2.151c0-1.225,0.877-2.229,2.289-2.229c0.671,0,1.26,0.204,1.617,0.471l-0.288,1.005
	c-0.26-0.188-0.74-0.455-1.356-0.455c-0.713,0-1.096,0.471-1.096,1.036c0,0.628,0.383,0.911,1.247,1.303
	c1.137,0.487,1.74,1.146,1.74,2.277c0,1.35-0.918,2.292-2.466,2.292c-0.726,0-1.397-0.22-1.863-0.534L50.632,33.566z"/>
<path fill="currentColor" d="M61.771,32.875c0,0.801,0.014,1.492,0.055,2.088h-1.069l-0.068-1.24h-0.027c-0.302,0.612-1.014,1.413-2.192,1.413
	c-1.042,0-2.289-0.675-2.289-3.329v-4.444h1.206v4.192c0,1.444,0.397,2.434,1.48,2.434c0.808,0,1.37-0.644,1.589-1.271
	c0.068-0.188,0.109-0.44,0.109-0.707v-4.648h1.206V32.875z"/>
<path fill="currentColor" d="M63.77,29.421c0-0.801-0.028-1.429-0.055-2.057h1.055l0.055,1.241h0.042c0.37-0.722,0.986-1.397,2.096-1.397
	c0.891,0,1.576,0.628,1.864,1.523h0.027c0.206-0.439,0.479-0.754,0.753-0.989c0.397-0.345,0.822-0.534,1.453-0.534
	c0.891,0,2.192,0.659,2.192,3.297v4.459h-1.179v-4.287c0-1.476-0.479-2.339-1.438-2.339c-0.699,0-1.22,0.581-1.439,1.24
	c-0.055,0.204-0.096,0.44-0.096,0.691v4.695h-1.178V30.41c0-1.209-0.466-2.073-1.384-2.073c-0.74,0-1.302,0.691-1.494,1.382
	c-0.068,0.188-0.096,0.439-0.096,0.675v4.569H63.77V29.421z"/>
<path fill="currentColor" d="M78.14,24.538c0.726-0.141,1.589-0.235,2.535-0.235c1.713,0,2.933,0.471,3.741,1.319c0.836,0.864,1.315,2.088,1.315,3.8
	c0,1.727-0.479,3.14-1.329,4.114c-0.877,0.989-2.302,1.523-4.097,1.523c-0.863,0-1.562-0.047-2.165-0.125V24.538z M79.332,33.896
	c0.302,0.047,0.74,0.063,1.206,0.063c2.562,0,3.933-1.633,3.933-4.491c0.014-2.497-1.22-4.082-3.741-4.082
	c-0.617,0-1.083,0.063-1.398,0.141V33.896z"/>
<path fill="currentColor" d="M93.278,31.101c0,2.811-1.713,4.035-3.302,4.035c-1.781,0-3.179-1.507-3.179-3.91c0-2.528,1.466-4.02,3.289-4.02
	C91.99,27.207,93.278,28.793,93.278,31.101z M88.03,31.179c0,1.665,0.822,2.92,2,2.92c1.151,0,2.014-1.24,2.014-2.952
	c0-1.288-0.562-2.905-1.987-2.905C88.647,28.243,88.03,29.75,88.03,31.179z"/>
<path fill="currentColor" d="M94.798,23.815h1.206v11.148h-1.206V23.815z"/>
<path fill="currentColor" d="M104.032,31.101c0,2.811-1.713,4.035-3.302,4.035c-1.781,0-3.179-1.507-3.179-3.91c0-2.528,1.466-4.02,3.289-4.02
	C102.744,27.207,104.032,28.793,104.032,31.101z M98.784,31.179c0,1.665,0.822,2.92,2,2.92c1.151,0,2.014-1.24,2.014-2.952
	c0-1.288-0.562-2.905-1.987-2.905C99.401,28.243,98.784,29.75,98.784,31.179z"/>
<path fill="currentColor" d="M105.552,29.735c0-0.895-0.014-1.665-0.055-2.371h1.055l0.055,1.507h0.042c0.301-1.021,1.041-1.664,1.85-1.664
	c0.124,0,0.219,0.016,0.329,0.031v1.303c-0.124-0.031-0.247-0.031-0.411-0.031c-0.85,0-1.453,0.722-1.617,1.758
	c-0.027,0.188-0.041,0.424-0.041,0.644v4.051h-1.206V29.735z"/>
<path fill="currentColor" d="M112.825,33.299c0.535,0.393,1.302,0.691,2.124,0.691c1.219,0,1.932-0.738,1.932-1.806c0-0.973-0.494-1.554-1.74-2.088
	c-1.507-0.628-2.439-1.539-2.439-3.015c0-1.649,1.192-2.874,2.987-2.874c0.932,0,1.631,0.251,2.028,0.518l-0.329,1.115
	c-0.288-0.204-0.904-0.502-1.74-0.502c-1.261,0-1.74,0.864-1.74,1.586c0,0.989,0.562,1.476,1.836,2.041
	c1.563,0.691,2.343,1.555,2.343,3.109c0,1.633-1.042,3.062-3.22,3.062c-0.891,0-1.863-0.314-2.356-0.691L112.825,33.299z"/>
<path fill="currentColor" d="M121.032,25.229c0,0.471-0.288,0.848-0.768,0.848c-0.438,0-0.726-0.377-0.726-0.848s0.301-0.863,0.753-0.863
	C120.73,24.365,121.032,24.742,121.032,25.229z M119.689,34.963v-7.6h1.206v7.6H119.689z"/>
<path fill="currentColor" d="M124.347,25.542v1.821h1.727v1.052h-1.727v4.098c0,0.942,0.233,1.476,0.904,1.476c0.329,0,0.521-0.031,0.699-0.094
	l0.055,1.052c-0.233,0.094-0.603,0.188-1.069,0.188c-0.562,0-1.014-0.22-1.302-0.581c-0.329-0.424-0.466-1.099-0.466-1.994v-4.145
	h-1.028v-1.052h1.028v-1.413L124.347,25.542z"/>
<path fill="currentColor" d="M131.868,31.635l-0.959,3.329h-1.233l3.151-10.583h1.425l3.152,10.583h-1.274l-0.987-3.329H131.868z M134.909,30.567
	l-0.918-3.046c-0.206-0.691-0.342-1.319-0.479-1.931h-0.027c-0.137,0.612-0.274,1.271-0.466,1.916l-0.904,3.062H134.909z"/>
<path fill="currentColor" d="M138.676,29.421c0-0.801-0.028-1.429-0.055-2.057h1.055l0.055,1.241h0.042c0.37-0.722,0.986-1.397,2.096-1.397
	c0.891,0,1.576,0.628,1.864,1.523h0.027c0.206-0.439,0.479-0.754,0.753-0.989c0.397-0.345,0.822-0.534,1.453-0.534
	c0.891,0,2.192,0.659,2.192,3.297v4.459h-1.179v-4.287c0-1.476-0.479-2.339-1.438-2.339c-0.699,0-1.22,0.581-1.439,1.24
	c-0.055,0.204-0.096,0.44-0.096,0.691v4.695h-1.178V30.41c0-1.209-0.466-2.073-1.384-2.073c-0.74,0-1.302,0.691-1.494,1.382
	c-0.068,0.188-0.096,0.439-0.096,0.675v4.569h-1.178V29.421z"/>
<path fill="currentColor" d="M150.772,31.415c0.027,1.868,1.055,2.638,2.274,2.638c0.863,0,1.397-0.173,1.836-0.393l0.219,0.989
	c-0.425,0.22-1.165,0.487-2.22,0.487c-2.042,0-3.261-1.555-3.261-3.847c0-2.292,1.179-4.082,3.111-4.082
	c2.179,0,2.74,2.167,2.74,3.564c0,0.283-0.014,0.487-0.041,0.644H150.772z M154.308,30.426c0.014-0.864-0.315-2.229-1.672-2.229
	c-1.233,0-1.754,1.271-1.85,2.229H154.308z"/>
<path fill="currentColor" d="M158.417,25.542v1.821h1.727v1.052h-1.727v4.098c0,0.942,0.233,1.476,0.904,1.476c0.329,0,0.521-0.031,0.699-0.094
	l0.055,1.052c-0.233,0.094-0.603,0.188-1.069,0.188c-0.562,0-1.014-0.22-1.302-0.581c-0.329-0.424-0.466-1.099-0.466-1.994v-4.145
	h-1.028v-1.052h1.028v-1.413L158.417,25.542z"/>
</svg>
